<svg version="1.1" xmlns="http://www.w3.org/2000/svg" xmlns:xlink="http://www.w3.org/1999/xlink" width="111.35107" height="96.96654" viewBox="0,0,111.35107,96.96654"><defs><linearGradient x1="186.79379" y1="180.00003" x2="293.20614" y2="180.00003" gradientUnits="userSpaceOnUse" id="color-1"><stop offset="0" stop-color="#fbff00"/><stop offset="1" stop-color="#00ff65"/></linearGradient><linearGradient x1="220.56755" y1="180.00001" x2="259.43245" y2="180.00001" gradientUnits="userSpaceOnUse" id="color-2"><stop offset="0" stop-color="#feff00"/><stop offset="1" stop-color="#00ff67"/></linearGradient></defs><g transform="translate(-184.3551,-131.49906)"><g data-paper-data="{&quot;isPaintingLayer&quot;:true}" fill-rule="nonzero" stroke-width="5" stroke-linejoin="miter" stroke-miterlimit="10" stroke-dasharray="" stroke-dashoffset="0" style="mix-blend-mode: normal"><path d="M278.11964,225.9587c-20.86926,-0.0576 -60.95547,0.23392 -74.09852,-0.2047c-11.58732,-0.38661 -16.90031,-8.33567 -17.16602,-24.84511c-0.17109,-10.63052 0.06713,-34.41809 0.09863,-50.57666c0.01848,-9.50316 6.52442,-16.35012 12.69702,-16.33313c12.78524,0.03538 60.42221,0.167 82.37464,0.22763c6.8572,0.01897 11.19359,7.57047 11.18075,14.18072c-0.02006,10.29593 -0.08033,41.22258 -0.1185,60.78065c-0.0192,9.84671 -6.04333,16.79515 -14.968,16.77049z" fill="#000000" stroke="url(#color-1)" stroke-linecap="butt"/><path d="M234.96559,184.01696c-6.46869,-5.18065 -7.53389,-14.61515 -2.38319,-21.10771c5.15071,-6.49256 14.58016,-7.60135 21.09646,-2.48071c6.5163,5.12063 7.66865,14.54488 2.57819,21.08477c-5.09046,6.53988 -14.50928,7.73581 -21.07262,2.67562l-14.61688,18.60076" data-paper-data="{&quot;index&quot;:null}" fill="none" stroke="url(#color-2)" stroke-linecap="round"/></g></g></svg>