<svg version="1.1" xmlns="http://www.w3.org/2000/svg" xmlns:xlink="http://www.w3.org/1999/xlink" width="111.35107" height="96.96654" viewBox="0,0,111.35107,96.96654"><defs><linearGradient x1="186.76316" y1="180.01769" x2="293.17551" y2="180.01769" gradientUnits="userSpaceOnUse" id="color-1"><stop offset="0" stop-color="#004cff"/><stop offset="1" stop-color="#ef00ff"/></linearGradient><linearGradient x1="213.92039" y1="180" x2="266.07961" y2="180" gradientUnits="userSpaceOnUse" id="color-2"><stop offset="0" stop-color="#0046ff"/><stop offset="1" stop-color="#fe00ff"/></linearGradient></defs><g transform="translate(-184.32446,-131.51673)"><g data-paper-data="{&quot;isPaintingLayer&quot;:true}" stroke-width="5" stroke-linecap="butt" stroke-miterlimit="10" stroke-dasharray="" stroke-dashoffset="0" style="mix-blend-mode: normal"><path d="M278.08901,225.97636c-20.86926,-0.0576 -60.95547,0.23392 -74.09852,-0.2047c-11.58732,-0.38661 -16.90031,-8.33567 -17.16602,-24.84511c-0.17109,-10.63052 0.06713,-34.41809 0.09863,-50.57666c0.01848,-9.50316 6.52442,-16.35012 12.69702,-16.33313c12.78524,0.03538 60.42221,0.167 82.37464,0.22763c6.8572,0.01897 11.19359,7.57047 11.18075,14.18072c-0.02006,10.29593 -0.08033,41.22258 -0.1185,60.78065c-0.0192,9.84671 -6.04333,16.79515 -14.968,16.77049z" fill="#000000" fill-rule="nonzero" stroke="url(#color-1)" stroke-linejoin="miter"/><path d="M266.07961,195.05707l-26.07961,15.05707l-26.07961,-15.05707v-30.11414l26.07961,-15.05707l26.07961,15.05707z" fill="none" fill-rule="evenodd" stroke="url(#color-2)" stroke-linejoin="round"/></g></g></svg>