<svg version="1.1" xmlns="http://www.w3.org/2000/svg" xmlns:xlink="http://www.w3.org/1999/xlink" width="111.35107" height="96.96654" viewBox="0,0,111.35107,96.96654"><defs><linearGradient x1="186.79379" y1="180.00003" x2="293.20614" y2="180.00003" gradientUnits="userSpaceOnUse" id="color-1"><stop offset="0" stop-color="#b800ff"/><stop offset="1" stop-color="#ff0000"/></linearGradient><linearGradient x1="221.21294" y1="188.20643" x2="225.23529" y2="188.20643" gradientUnits="userSpaceOnUse" id="color-2"><stop offset="0" stop-color="#bd00ff"/><stop offset="1" stop-color="#ff0000"/></linearGradient><linearGradient x1="221.16923" y1="172.05207" x2="225.19158" y2="172.05207" gradientUnits="userSpaceOnUse" id="color-3"><stop offset="0" stop-color="#bd00ff"/><stop offset="1" stop-color="#ff0000"/></linearGradient><linearGradient x1="223.23684" y1="180.00001" x2="265.00673" y2="180.00001" gradientUnits="userSpaceOnUse" id="color-4"><stop offset="0" stop-color="#bd00ff"/><stop offset="1" stop-color="#ff0000"/></linearGradient><linearGradient x1="214.99327" y1="164.85395" x2="232.55785" y2="164.85395" gradientUnits="userSpaceOnUse" id="color-5"><stop offset="0" stop-color="#bd00ff"/><stop offset="1" stop-color="#ff0000"/></linearGradient><linearGradient x1="215.24234" y1="178.84855" x2="232.80691" y2="178.84855" gradientUnits="userSpaceOnUse" id="color-6"><stop offset="0" stop-color="#bd00ff"/><stop offset="1" stop-color="#ff0000"/></linearGradient><linearGradient x1="215.22189" y1="195.53836" x2="232.78646" y2="195.53836" gradientUnits="userSpaceOnUse" id="color-7"><stop offset="0" stop-color="#bd00ff"/><stop offset="1" stop-color="#ff0000"/></linearGradient></defs><g transform="translate(-184.3551,-131.49907)"><g data-paper-data="{&quot;isPaintingLayer&quot;:true}" fill-rule="nonzero" stroke-width="5" stroke-linecap="butt" stroke-linejoin="miter" stroke-miterlimit="10" stroke-dasharray="" stroke-dashoffset="0" style="mix-blend-mode: normal"><path d="M278.11964,225.9587c-20.86926,-0.0576 -60.95547,0.23392 -74.09852,-0.2047c-11.58732,-0.38661 -16.90031,-8.33567 -17.16602,-24.84511c-0.17109,-10.63052 0.06713,-34.41809 0.09863,-50.57666c0.01848,-9.50316 6.52442,-16.35012 12.69702,-16.33313c12.78524,0.03538 60.42221,0.167 82.37464,0.22763c6.8572,0.01897 11.19359,7.57047 11.18075,14.18072c-0.02006,10.29593 -0.08033,41.22258 -0.1185,60.78065c-0.0192,9.84671 -6.04333,16.79515 -14.968,16.77049z" fill="#000000" stroke="url(#color-1)"/><g fill="none"><path d="M223.2051,183.2455c0.01255,3.39954 0.02711,6.79246 0.03803,9.92186" stroke="url(#color-2)"/><path d="M223.18248,175.62007c-0.00486,-2.53195 -0.00594,-4.95066 -0.00061,-7.13601" stroke="url(#color-3)"/><path d="M223.23684,161.63544c0.00689,-0.38368 0.01448,-0.73928 0.02284,-1.06446c0.16138,-6.27717 3.77187,-9.16358 11.28405,-9.32497c4.83718,-0.10392 15.66185,0 23.01474,0c4.32434,0 7.44826,3.51695 7.44826,6.86063c0,6.92571 0,32.73048 0,44.62206c0,3.71451 -3.43082,6.07148 -6.43884,6.07148c-4.68515,0 -18.75821,0 -27.65805,0c-4.4807,0 -7.65015,-3.25586 -7.65015,-8.09033c0,-0.674 -0.00065,-1.38501 -0.00183,-2.12772" stroke="url(#color-4)"/><path d="M230.06765,168.80305c-3.44471,-0.00495 -10.0614,0.0201 -12.23081,-0.01759c-1.91262,-0.03322 -2.78959,-0.71626 -2.83345,-2.13487c-0.02824,-0.91345 0.01108,-2.95745 0.01628,-4.34591c0.00305,-0.81658 1.07693,-1.40492 2.09579,-1.40346c2.11035,0.00304 9.97338,0.01435 13.59688,0.01956c1.13186,0.00163 1.84763,0.65051 1.84551,1.21851c-0.00331,0.8847 -0.01326,3.54214 -0.01956,5.22271c-0.00317,0.8461 -0.99752,1.44316 -2.47064,1.44104z" stroke="url(#color-5)"/><path d="M230.31672,182.79766c-3.44471,-0.00495 -10.06141,0.02009 -12.23081,-0.0176c-1.91262,-0.03322 -2.78958,-0.71626 -2.83345,-2.13486c-0.02824,-0.91345 0.01108,-2.95745 0.01628,-4.34591c0.00305,-0.81658 1.07693,-1.40492 2.09579,-1.40346c2.11035,0.00304 9.97338,0.01434 13.59689,0.01955c1.13186,0.00163 1.84763,0.65051 1.8455,1.21852c-0.00331,0.8847 -0.01326,3.54214 -0.01956,5.22271c-0.00317,0.8461 -0.99751,1.44316 -2.47063,1.44105z" stroke="url(#color-6)"/><path d="M230.29626,199.48747c-3.44471,-0.00495 -10.0614,0.02009 -12.2308,-0.0176c-1.91262,-0.03322 -2.78959,-0.71626 -2.83346,-2.13486c-0.02824,-0.91345 0.01108,-2.95745 0.01628,-4.3459c0.00305,-0.81658 1.07693,-1.40492 2.09579,-1.40346c2.11035,0.00304 9.97338,0.01434 13.59689,0.01955c1.13186,0.00163 1.84763,0.65051 1.8455,1.21851c-0.00331,0.8847 -0.01327,3.54214 -0.01956,5.22271c-0.00317,0.8461 -0.99751,1.44316 -2.47063,1.44104z" stroke="url(#color-7)"/></g></g></g></svg>