<svg version="1.1" xmlns="http://www.w3.org/2000/svg" xmlns:xlink="http://www.w3.org/1999/xlink" width="111.35107" height="108.44055" viewBox="0,0,111.35107,108.44055"><defs><linearGradient x1="186.79379" y1="180.00003" x2="293.20614" y2="180.00003" gradientUnits="userSpaceOnUse" id="color-1"><stop offset="0" stop-color="#ff0000"/><stop offset="1" stop-color="#ffcc00"/></linearGradient><linearGradient x1="212.33098" y1="157.28095" x2="222.14253" y2="157.28095" gradientUnits="userSpaceOnUse" id="color-2"><stop offset="0" stop-color="#ff0000"/><stop offset="1" stop-color="#ffc700"/></linearGradient><linearGradient x1="258.08311" y1="157.32356" x2="267.97986" y2="157.32356" gradientUnits="userSpaceOnUse" id="color-3"><stop offset="0" stop-color="#ff0000"/><stop offset="1" stop-color="#ffc700"/></linearGradient><linearGradient x1="202.96047" y1="180.33981" x2="276.97826" y2="180.33981" gradientUnits="userSpaceOnUse" id="color-4"><stop offset="0" stop-color="#ff0000"/><stop offset="1" stop-color="#ffc700"/></linearGradient><linearGradient x1="212.21707" y1="185.35451" x2="274.29639" y2="185.35451" gradientUnits="userSpaceOnUse" id="color-5"><stop offset="0" stop-color="#ff0000"/><stop offset="1" stop-color="#ffc700"/></linearGradient><linearGradient x1="225.46856" y1="164.6201" x2="254.83018" y2="164.6201" gradientUnits="userSpaceOnUse" id="color-6"><stop offset="0" stop-color="#ff0000"/><stop offset="1" stop-color="#ffc700"/></linearGradient><linearGradient x1="228" y1="209.40676" x2="253.10667" y2="209.40676" gradientTransform="translate(-207.77907,-179.82569) scale(0.91131,0.80364)" gradientUnits="userSpaceOnUse" id="color-7"><stop offset="0" stop-color="#ff0000"/><stop offset="1" stop-color="#ffc800"/></linearGradient></defs><g transform="translate(-184.3551,-131.49907)"><g data-paper-data="{&quot;isPaintingLayer&quot;:true}" fill-rule="nonzero" stroke-linejoin="miter" stroke-miterlimit="10" stroke-dasharray="" stroke-dashoffset="0" style="mix-blend-mode: normal"><path d="M278.11964,225.9587c-20.86926,-0.0576 -60.95547,0.23392 -74.09852,-0.2047c-11.58732,-0.38661 -16.90031,-8.33567 -17.16602,-24.84511c-0.17109,-10.63052 0.06713,-34.41809 0.09863,-50.57666c0.01848,-9.50316 6.52442,-16.35012 12.69702,-16.33313c12.78524,0.03538 60.42221,0.167 82.37464,0.22763c6.8572,0.01897 11.19359,7.57047 11.18075,14.18072c-0.02006,10.29593 -0.08033,41.22258 -0.1185,60.78065c-0.0192,9.84671 -6.04333,16.79515 -14.968,16.77049z" fill="#000000" stroke="url(#color-1)" stroke-width="5" stroke-linecap="butt"/><g fill="none" stroke-width="5"><path d="M212.33098,159.09146l0.01955,-1.46612c0,0 2.074,-1.64362 4.75467,-2.02507c2.97565,-0.42342 4.82229,0.32439 4.82229,0.32439l0.21503,1.75934z" stroke="url(#color-2)" stroke-linecap="butt"/><path d="M258.08311,157.68401l0.47062,-1.84454c0,0 1.50585,-0.74782 4.48149,-0.3244c2.68068,0.38145 4.75468,2.02508 4.75468,2.02508l0.18995,1.72172z" data-paper-data="{&quot;index&quot;:null}" stroke="url(#color-3)" stroke-linecap="butt"/><path d="M226.69761,170.79906c-0.33586,1.84463 -4.62966,13.55812 -8.2378,22.69949c-2.03081,5.14515 -2.76754,9.38815 -5.09668,10.81193c-0.55147,0.33711 -4.03688,-0.47589 -4.25782,-0.51224c-6.73306,-1.10769 -7.15436,-13.21613 -4.95636,-24.26168c2.11988,-10.65293 6.74647,-20.27617 6.74647,-20.27617l1.60235,-0.17782c0,0 8.95081,-3.06102 26.42607,-3.053c15.96791,0.00732 29.28435,3.03113 29.28435,3.03113l1.14839,0.29856c0,0 5.61573,10.76725 7.01603,21.93727c1.09601,8.74267 0.87215,17.59373 -2.07324,20.96096c-2.94539,3.36723 -6.23016,2.21858 -7.12021,2.1456c-0.99405,-0.0815 -1.46633,-1.37775 -2.08206,-2.80928c-1.51481,-3.52182 -3.60306,-9.52148 -4.9295,-11.82316c-1.14641,-1.98928 -3.4579,-2.94315 -3.4579,-2.94315l-3.21843,-15.30767c0,0 -0.48872,1.83823 -4.59393,2.26103c-2.06465,0.21264 -7.19778,0.3432 -9.63956,0.25533c-2.88307,-0.10375 -7.33791,0.15988 -9.78255,-0.3725c-2.5892,-0.56386 -2.75125,-3.00941 -2.77761,-2.86462z" stroke="url(#color-4)" stroke-linecap="butt"/><path d="M212.21707,202.84152c0,0 0.86542,-1.05783 1.12641,-1.57753c0.5456,-1.08647 1.54114,-7.08031 4.05898,-12.1955c1.73656,-3.52797 3.84008,-7.81796 5.97895,-11.13618c1.85671,-2.88048 3.7814,-4.88389 5.00188,-6.81945c1.33764,-2.12135 1.53377,-3.51773 1.53377,-3.51773c0,0 0.72225,1.81663 1.28913,2.54168c0.51223,0.65515 2.00711,1.28201 2.00711,1.28201c0,0 16.05103,0.5304 18.95558,-0.03252c4.30343,-0.83403 4.31872,-4.14817 4.31872,-4.14817c0,0 0.24755,1.78684 1.60359,4.52704c0.86452,1.74696 3.63286,3.94047 5.58768,7.74042c1.63037,3.16925 3.41595,5.99577 4.9595,9.80559c1.56447,3.86147 2.88257,8.701 3.88327,11.10308c0.9686,2.32502 2.29793,1.52095 1.56121,2.3792c-0.73672,0.85825 -4.11659,0.5977 -4.11659,0.5977c0,0 -1.72096,-4.48494 -3.71049,-8.94407c-1.78981,-4.0115 -3.31729,-7.8503 -6.8066,-8.27792c-3.13556,-0.38426 -3.46803,0.43649 -3.46803,0.43649l-25.3606,-0.04399c0,0 -2.44886,-1.12386 -5.37938,0.10447c-2.21852,0.92989 -3.62842,3.84563 -5.1217,6.99313c-2.20734,4.6526 -4.00023,9.81163 -4.00023,9.81163z" stroke="url(#color-5)" stroke-linecap="butt"/><path d="M226.16816,157.07369l28.24091,0.1279c0,0 0.73963,1.28572 0.25847,2.66255c-0.19431,0.90998 -1.77291,8.85057 -2.19652,10.21269c-0.5898,1.89651 -3.51565,2.08966 -3.51565,2.08966l-18.39041,-0.12791c0,0 -2.13673,-0.56441 -2.77325,-2.36036c-0.38995,-1.10027 -2.19851,-9.14643 -2.30801,-10.55444c-0.1356,-1.74369 0.68446,-2.05011 0.68446,-2.05011z" stroke="url(#color-6)" stroke-linecap="round"/></g><text transform="translate(228,223.76327) scale(1.09732,1.24433)" font-size="40" xml:space="preserve" fill="#000000" fill-rule="nonzero" stroke="url(#color-7)" stroke-width="2" stroke-linecap="butt" stroke-linejoin="miter" stroke-miterlimit="10" stroke-dasharray="" stroke-dashoffset="0" font-family="Sans Serif" font-weight="normal" text-anchor="start" style="mix-blend-mode: normal"><tspan x="0" dy="0">+</tspan></text></g></g></svg>