<svg version="1.1" xmlns="http://www.w3.org/2000/svg" xmlns:xlink="http://www.w3.org/1999/xlink" width="151.89488" height="174.61959" viewBox="0,0,151.89488,174.61959"><defs><linearGradient x1="179.65682" y1="188.20644" x2="183.67917" y2="188.20644" gradientUnits="userSpaceOnUse" id="color-1"><stop offset="0" stop-color="#bd00ff"/><stop offset="1" stop-color="#ff0000"/></linearGradient><linearGradient x1="179.61311" y1="172.05208" x2="183.63546" y2="172.05208" gradientUnits="userSpaceOnUse" id="color-2"><stop offset="0" stop-color="#bd00ff"/><stop offset="1" stop-color="#ff0000"/></linearGradient><linearGradient x1="181.68072" y1="180.00002" x2="223.45061" y2="180.00002" gradientUnits="userSpaceOnUse" id="color-3"><stop offset="0" stop-color="#bd00ff"/><stop offset="1" stop-color="#ff0000"/></linearGradient><linearGradient x1="173.43715" y1="164.85396" x2="191.00173" y2="164.85396" gradientUnits="userSpaceOnUse" id="color-4"><stop offset="0" stop-color="#bd00ff"/><stop offset="1" stop-color="#ff0000"/></linearGradient><linearGradient x1="173.68622" y1="178.84856" x2="191.25079" y2="178.84856" gradientUnits="userSpaceOnUse" id="color-5"><stop offset="0" stop-color="#bd00ff"/><stop offset="1" stop-color="#ff0000"/></linearGradient><linearGradient x1="173.66577" y1="195.53837" x2="191.23034" y2="195.53837" gradientUnits="userSpaceOnUse" id="color-6"><stop offset="0" stop-color="#bd00ff"/><stop offset="1" stop-color="#ff0000"/></linearGradient><linearGradient x1="210.992" y1="158.88378" x2="220.80355" y2="158.88378" gradientUnits="userSpaceOnUse" id="color-7"><stop offset="0" stop-color="#00e9ff"/><stop offset="1" stop-color="#0046ff"/></linearGradient><linearGradient x1="256.74413" y1="158.92639" x2="266.64088" y2="158.92639" gradientUnits="userSpaceOnUse" id="color-8"><stop offset="0" stop-color="#00e9ff"/><stop offset="1" stop-color="#0046ff"/></linearGradient><linearGradient x1="201.62149" y1="181.94264" x2="275.63928" y2="181.94264" gradientUnits="userSpaceOnUse" id="color-9"><stop offset="0" stop-color="#00e9ff"/><stop offset="1" stop-color="#0046ff"/></linearGradient><linearGradient x1="207.87809" y1="187.95734" x2="269.95741" y2="187.95734" gradientUnits="userSpaceOnUse" id="color-10"><stop offset="0" stop-color="#00e9ff"/><stop offset="1" stop-color="#0046ff"/></linearGradient><linearGradient x1="224.12958" y1="166.22293" x2="253.4912" y2="166.22293" gradientUnits="userSpaceOnUse" id="color-11"><stop offset="0" stop-color="#00e9ff"/><stop offset="1" stop-color="#0046ff"/></linearGradient><linearGradient x1="267.69795" y1="180.12049" x2="306.56285" y2="180.12049" gradientUnits="userSpaceOnUse" id="color-12"><stop offset="0" stop-color="#00ff67"/><stop offset="1" stop-color="#00e9ff"/></linearGradient><linearGradient x1="166.55256" y1="180.00002" x2="313.44744" y2="180.00002" gradientUnits="userSpaceOnUse" id="color-13"><stop offset="0" stop-color="#0046ff"/><stop offset="1" stop-color="#fe00ff"/></linearGradient></defs><g transform="translate(-164.05256,-92.69022)"><g data-paper-data="{&quot;isPaintingLayer&quot;:true}" fill="none" stroke-width="5" stroke-miterlimit="10" stroke-dasharray="" stroke-dashoffset="0" style="mix-blend-mode: normal"><g fill-rule="nonzero" stroke-linecap="butt" stroke-linejoin="miter"><path d="M181.64898,183.24551c0.01255,3.39954 0.02711,6.79246 0.03803,9.92186" stroke="url(#color-1)"/><path d="M181.62636,175.62008c-0.00486,-2.53195 -0.00594,-4.95066 -0.00061,-7.13601" stroke="url(#color-2)"/><path d="M181.68072,161.63545c0.00689,-0.38368 0.01448,-0.73928 0.02284,-1.06446c0.16138,-6.27717 3.77187,-9.16358 11.28405,-9.32497c4.83718,-0.10392 15.66185,0 23.01474,0c4.32434,0 7.44826,3.51695 7.44826,6.86063c0,6.92571 0,32.73048 0,44.62206c0,3.71451 -3.43082,6.07148 -6.43884,6.07148c-4.68515,0 -18.75821,0 -27.65805,0c-4.4807,0 -7.65015,-3.25586 -7.65015,-8.09033c0,-0.674 -0.00065,-1.38501 -0.00183,-2.12772" stroke="url(#color-3)"/><path d="M188.51153,168.80306c-3.44471,-0.00495 -10.0614,0.0201 -12.23081,-0.01759c-1.91262,-0.03322 -2.78959,-0.71626 -2.83345,-2.13487c-0.02824,-0.91345 0.01108,-2.95745 0.01628,-4.34591c0.00305,-0.81658 1.07693,-1.40492 2.09579,-1.40346c2.11035,0.00304 9.97338,0.01435 13.59688,0.01956c1.13186,0.00163 1.84763,0.65051 1.84551,1.21851c-0.00331,0.8847 -0.01326,3.54214 -0.01956,5.22271c-0.00317,0.8461 -0.99752,1.44316 -2.47064,1.44104z" stroke="url(#color-4)"/><path d="M188.7606,182.79767c-3.44471,-0.00495 -10.06141,0.02009 -12.23081,-0.0176c-1.91262,-0.03322 -2.78958,-0.71626 -2.83345,-2.13486c-0.02824,-0.91345 0.01108,-2.95745 0.01628,-4.34591c0.00305,-0.81658 1.07693,-1.40492 2.09579,-1.40346c2.11035,0.00304 9.97338,0.01434 13.59689,0.01955c1.13186,0.00163 1.84763,0.65051 1.8455,1.21852c-0.00331,0.8847 -0.01326,3.54214 -0.01956,5.22271c-0.00317,0.8461 -0.99751,1.44316 -2.47063,1.44105z" stroke="url(#color-5)"/><path d="M188.74014,199.48748c-3.44471,-0.00495 -10.0614,0.02009 -12.2308,-0.0176c-1.91262,-0.03322 -2.78959,-0.71626 -2.83346,-2.13486c-0.02824,-0.91345 0.01108,-2.95745 0.01628,-4.3459c0.00305,-0.81658 1.07693,-1.40492 2.09579,-1.40346c2.11035,0.00304 9.97338,0.01434 13.59689,0.01955c1.13186,0.00163 1.84763,0.65051 1.8455,1.21851c-0.00331,0.8847 -0.01327,3.54214 -0.01956,5.22271c-0.00317,0.8461 -0.99751,1.44316 -2.47063,1.44104z" stroke="url(#color-6)"/></g><g fill-rule="nonzero" stroke-linejoin="miter"><path d="M210.992,160.69429l0.01955,-1.46612c0,0 2.074,-1.64362 4.75467,-2.02507c2.97565,-0.42342 4.82229,0.32439 4.82229,0.32439l0.21503,1.75934z" stroke="url(#color-7)" stroke-linecap="butt"/><path d="M256.74413,159.28684l0.47062,-1.84454c0,0 1.50585,-0.74782 4.48149,-0.3244c2.68068,0.38145 4.75468,2.02508 4.75468,2.02508l0.18995,1.72172z" data-paper-data="{&quot;index&quot;:null}" stroke="url(#color-8)" stroke-linecap="butt"/><path d="M225.35863,172.40189c-0.33586,1.84463 -4.62966,13.55812 -8.2378,22.69949c-2.03081,5.14515 -2.76754,9.38815 -5.09668,10.81193c-0.55147,0.33711 -4.03688,-0.47589 -4.25782,-0.51224c-6.73306,-1.10769 -7.15436,-13.21613 -4.95636,-24.26168c2.11988,-10.65293 6.74647,-20.27617 6.74647,-20.27617l1.60235,-0.17782c0,0 8.95081,-3.06102 26.42607,-3.053c15.96791,0.00732 29.28435,3.03113 29.28435,3.03113l1.14839,0.29856c0,0 5.61573,10.76725 7.01603,21.93727c1.09601,8.74267 0.87215,17.59373 -2.07324,20.96096c-2.94539,3.36723 -6.23016,2.21858 -7.12021,2.1456c-0.99405,-0.0815 -1.46633,-1.37775 -2.08206,-2.80928c-1.51481,-3.52182 -3.60306,-9.52148 -4.9295,-11.82316c-1.14641,-1.98928 -3.4579,-2.94315 -3.4579,-2.94315l-3.21843,-15.30767c0,0 -0.48872,1.83823 -4.59393,2.26103c-2.06465,0.21264 -7.19778,0.3432 -9.63956,0.25533c-2.88307,-0.10375 -7.33791,0.15988 -9.78255,-0.3725c-2.5892,-0.56386 -2.75125,-3.00941 -2.77761,-2.86462z" stroke="url(#color-9)" stroke-linecap="butt"/><path d="M207.87809,205.44435c0,0 0.86542,-1.05783 1.12641,-1.57753c0.5456,-1.08647 1.54114,-7.08031 4.05898,-12.1955c1.73656,-3.52797 3.84008,-7.81796 5.97895,-11.13618c1.85671,-2.88048 3.7814,-4.88389 5.00188,-6.81945c1.33764,-2.12135 1.53377,-3.51773 1.53377,-3.51773c0,0 0.72225,1.81663 1.28913,2.54168c0.51223,0.65515 2.00711,1.28201 2.00711,1.28201c0,0 16.05103,0.5304 18.95558,-0.03252c4.30343,-0.83403 4.31872,-4.14817 4.31872,-4.14817c0,0 0.24755,1.78684 1.60359,4.52704c0.86452,1.74696 3.63286,3.94047 5.58768,7.74042c1.63037,3.16925 3.41595,5.99577 4.9595,9.80559c1.56447,3.86147 2.88257,8.701 3.88327,11.10308c0.9686,2.32502 2.29793,1.52095 1.56121,2.3792c-0.73672,0.85825 -4.11659,0.5977 -4.11659,0.5977c0,0 -1.72096,-4.48494 -3.71049,-8.94407c-1.78981,-4.0115 -3.31729,-7.8503 -6.8066,-8.27792c-3.13556,-0.38426 -3.46803,0.43649 -3.46803,0.43649l-25.3606,-0.04399c0,0 -2.44886,-1.12386 -5.37938,0.10447c-2.21852,0.92989 -3.62842,3.84563 -5.1217,6.99313c-2.20734,4.6526 -4.00023,9.81163 -4.00023,9.81163z" stroke="url(#color-10)" stroke-linecap="butt"/><path d="M224.82918,158.67652l28.24091,0.1279c0,0 0.73963,1.28572 0.25847,2.66255c-0.19431,0.90998 -1.77291,8.85057 -2.19652,10.21269c-0.5898,1.89651 -3.51565,2.08966 -3.51565,2.08966l-18.39041,-0.12791c0,0 -2.13673,-0.56441 -2.77325,-2.36036c-0.38995,-1.10027 -2.19851,-9.14643 -2.30801,-10.55444c-0.1356,-1.74369 0.68446,-2.05011 0.68446,-2.05011z" stroke="url(#color-11)" stroke-linecap="round"/></g><path d="M282.09599,184.13744c-6.46869,-5.18065 -7.53389,-14.61515 -2.38319,-21.10771c5.15071,-6.49256 14.58016,-7.60135 21.09646,-2.48071c6.5163,5.12063 7.66865,14.54488 2.57819,21.08477c-5.09046,6.53988 -14.50928,7.73581 -21.07262,2.67562l-14.61688,18.60076" data-paper-data="{&quot;index&quot;:null}" fill-rule="nonzero" stroke="url(#color-12)" stroke-linecap="round" stroke-linejoin="miter"/><path d="M313.44744,222.40491l-73.44744,42.40491l-73.44744,-42.4049v-84.8098l73.44744,-42.40489l73.44744,42.4049z" fill-rule="evenodd" stroke="url(#color-13)" stroke-linecap="butt" stroke-linejoin="round"/></g></g></svg>